# xmcd
#
# Track frame offsets: 
#        150
#        22295
#        37955
#        56027
#        72812
#        90832
#        110885
#        124345
#        153537
#        173507
#
# Disc length: 2580 seconds
#
# Revision: 4
# Processed by: cddbd v1.5.1PL0 Copyright (c) Steve Scherf et al.
# Submitted via: ExactAudioCopy v0.95b1
#
DISCID=830a120a
DTITLE=Tommy Castro - Exception To The Rule
DYEAR=1995
DGENRE=Blues
TTITLE0=Had Enough
TTITLE1=Exception To The Rule
TTITLE2=Nasty Habits
TTITLE3=This Soul Is Mine
TTITLE4=Sho' Enough
TTITLE5=Me And My Guitar
TTITLE6=Hard Luck Case
TTITLE7=How Long Must I Cry
TTITLE8=Leave This Town
TTITLE9=Can't Quit The Blues
EXTD=YEAR: 1995
EXTT0=
EXTT1=
EXTT2=
EXTT3=
EXTT4=
EXTT5=
EXTT6=
EXTT7=
EXTT8=
EXTT9=
PLAYORDER=
